<svg width="12" height="12" viewBox="0 0 12 12" fill="none" xmlns="http://www.w3.org/2000/svg">
<g id="bx:bxs-star">
<path id="Vector" d="M10.9735 4.58951C10.942 4.49694 10.8842 4.4156 10.807 4.35554C10.7299 4.29547 10.6369 4.25931 10.5395 4.25151L7.68895 4.02501L6.45545 1.29451C6.41617 1.20656 6.35227 1.13187 6.27147 1.07944C6.19068 1.027 6.09643 0.999076 6.00011 0.999024C5.9038 0.998971 5.80952 1.02679 5.72866 1.07914C5.64781 1.13148 5.58383 1.20611 5.54445 1.29401L4.31095 4.02501L1.46045 4.25151C1.36468 4.25909 1.27312 4.29411 1.19673 4.35237C1.12034 4.41063 1.06235 4.48967 1.0297 4.58002C0.997049 4.67038 0.991121 4.76822 1.01262 4.86186C1.03413 4.95549 1.08215 5.04095 1.15095 5.10801L3.25745 7.16151L2.51245 10.3875C2.48983 10.4852 2.49708 10.5874 2.53326 10.6808C2.56944 10.7743 2.63288 10.8548 2.71535 10.9117C2.79782 10.9687 2.89551 10.9996 2.99574 11.0003C3.09598 11.0011 3.19412 10.9717 3.27745 10.916L5.99995 9.10101L8.72245 10.916C8.80762 10.9726 8.90806 11.0017 9.01027 10.9994C9.11247 10.9972 9.21154 10.9637 9.29415 10.9035C9.37676 10.8432 9.43894 10.7592 9.47233 10.6625C9.50573 10.5659 9.50874 10.4614 9.48095 10.363L8.56645 7.16301L10.8345 5.12201C10.983 4.98801 11.0375 4.77901 10.9735 4.58951Z" fill="#F2C94C"/>
</g>
</svg>
